<svg width="49" height="70" viewBox="0 0 49 70" fill="none" xmlns="http://www.w3.org/2000/svg">
<path d="M0 13.0966C0 5.86355 5.86357 0 13.0967 0H35.5689C42.802 0 48.6656 5.86355 48.6656 13.0966C48.6656 17.6766 46.3146 21.7077 42.7535 24.0484C46.3146 26.3893 48.6656 30.4202 48.6656 35.0003C48.6656 42.2334 42.802 48.097 35.5689 48.097H35.2845C31.8936 48.097 28.8036 46.8083 26.4778 44.6939V56.7611C26.4778 64.0906 20.4609 70 13.1672 70C5.9522 70 0 64.1543 0 56.9033C0 52.3235 2.35081 48.2928 5.91161 45.9519C2.35081 43.611 0 39.5801 0 35.0003C0 30.4202 2.35102 26.3893 5.91206 24.0484C2.35102 21.7077 0 17.6766 0 13.0966ZM22.1878 26.1935H13.0967C8.23282 26.1935 4.28993 30.1365 4.28993 35.0003C4.28993 39.8453 8.20241 43.7765 13.0404 43.8069C13.0591 43.8067 13.0778 43.8067 13.0967 43.8067H22.1878V26.1935ZM26.4778 35.0003C26.4778 39.864 30.4206 43.807 35.2845 43.807H35.5689C40.4328 43.807 44.3756 39.864 44.3756 35.0003C44.3756 30.1365 40.4328 26.1935 35.5689 26.1935H35.2845C30.4206 26.1935 26.4778 30.1365 26.4778 35.0003ZM13.0967 48.097C13.0778 48.097 13.0591 48.0968 13.0404 48.0968C8.20241 48.1271 4.28993 52.0583 4.28993 56.9033C4.28993 61.7493 8.2855 65.71 13.1672 65.71C18.1277 65.71 22.1878 61.6856 22.1878 56.7611V48.097H13.0967ZM13.0967 4.28993C8.23282 4.28993 4.28993 8.23283 4.28993 13.0966C4.28993 17.9605 8.23282 21.9033 13.0967 21.9033H22.1878V4.28993H13.0967ZM26.4778 21.9033H35.5689C40.4328 21.9033 44.3756 17.9605 44.3756 13.0966C44.3756 8.23283 40.4328 4.28993 35.5689 4.28993H26.4778V21.9033Z" fill="white"/>
</svg>
