<svg width="87" height="70" viewBox="0 0 87 70" fill="none" xmlns="http://www.w3.org/2000/svg">
<path d="M36.6646 18.4535H23.2237C16.443 16.6753 1.10353 17.1381 1.10353 31.1316C1.10353 36.2324 3.64627 39.816 7.03659 41.4721C2.78174 45.371 0.764497 47.2103 0.764497 49.814C0.764497 51.6787 1.52223 53.3976 3.79714 54.3588C1.37815 56.632 -2.06929e-05 58.2831 -2.06929e-05 61.3852C-2.06929e-05 66.8284 4.75491 70 17.2279 70C29.2212 70 36.1781 65.5214 36.1781 57.5948C36.1781 47.651 28.5228 48.0172 10.4744 46.9153L12.751 43.2622C17.3737 44.5472 32.8726 44.9574 32.8726 31.7538C32.8726 28.5838 31.5622 26.3784 30.3298 24.7917L36.6714 24.3103L36.6646 18.4535ZM25.9139 59.4595C25.9139 64.8942 8.13336 64.901 8.13336 59.8714C8.13336 58.4916 9.02671 57.3287 9.92515 56.22C23.0982 57.1185 25.9139 56.7913 25.9139 59.4595ZM17.3008 36.646C8.35034 36.646 8.74701 24.5832 17.5042 24.5832C25.902 24.5832 26.119 36.646 17.3008 36.646ZM39.8973 53.6841V48.2426C44.4319 47.6222 44.5149 47.9036 44.5149 46.3779V26.1191C44.5149 24.6782 44.1674 24.868 39.8973 23.3627L40.655 17.7823H54.9232V46.3813C54.9232 47.4849 54.991 47.6222 56.0268 47.7612L59.5408 48.2426V53.6841H39.8973ZM48.7884 12.2696C44.8607 12.2696 42.5858 9.99299 42.5858 6.0636C42.5858 2.13422 44.8607 1.03464e-05 48.7884 1.03464e-05C52.7856 1.03464e-05 55.0605 2.1393 55.0605 6.0636C55.0605 9.9879 52.7856 12.2696 48.7884 12.2696ZM86.7922 51.0125C83.8274 52.4585 79.4861 53.7688 75.5567 53.7688C67.3555 53.7688 64.2551 50.4633 64.2551 42.6723V24.6171C64.2551 23.6984 64.4331 23.9289 58.8797 23.9289V17.7941C64.945 17.1042 67.3555 14.0648 68.1133 6.56029H74.6617C74.6617 17.7195 74.4345 17.0381 75.2143 17.0381H84.9276V23.9289H74.6617V40.3974C74.6617 41.5705 73.8277 49.1122 84.9293 44.9472L86.7922 51.0125Z" fill="white"/>
</svg>
