<svg width="73" height="70" viewBox="0 0 73 70" fill="none" xmlns="http://www.w3.org/2000/svg">
<path d="M4.61106 16.4278C-1.81472 25.6691 -1.02002 37.6896 3.89355 47.5349C4.00708 47.7711 4.13197 48.0027 4.25231 48.2343L4.47937 48.677C4.52478 48.7633 4.57473 48.8473 4.62241 48.9313C4.70643 49.0903 4.79271 49.2356 4.87899 49.39L5.349 50.1938L5.61693 50.6343L6.16188 51.4858L6.39348 51.8445C6.65006 52.226 6.91117 52.6074 7.18138 52.9798L7.33578 53.1887C7.56983 53.5104 7.80903 53.8283 8.05328 54.1424L8.32576 54.4875L8.98877 55.3049L9.24308 55.6092C9.54507 55.9656 9.85614 56.3199 10.1672 56.665C10.199 56.699 10.2126 56.7104 10.2217 56.724C10.5302 57.0586 10.8435 57.3886 11.1617 57.714L11.4637 58.0183L12.213 58.7539L12.5195 59.0491C12.8568 59.3671 13.1997 59.679 13.5481 59.9846L14.6743 60.9382L15.0603 61.247L15.8392 61.8556L16.2547 62.1734L17.1289 62.8001L17.5376 63.0885C17.8168 63.2815 18.1007 63.4654 18.3868 63.6493L18.7546 63.8946C19.1929 64.1728 19.6357 64.4438 20.0829 64.7074L20.4507 64.9345L21.4498 65.4931C21.6314 65.5907 21.8176 65.6838 22.0016 65.7769L22.7145 66.147L22.8803 66.2265L23.1754 66.3672L24.3062 66.8895L24.5446 66.9962C24.9811 67.1863 25.4209 67.3688 25.8638 67.5434L26.1817 67.6706L27.426 68.1315L27.5849 68.186C28.0444 68.3442 28.5061 68.4956 28.97 68.6401L29.3061 68.74C29.7602 68.8831 30.2506 69.0579 30.7365 69.1442C61.8301 74.8139 70.858 50.4572 70.858 50.4572C63.2742 60.3388 49.8095 62.9455 37.0261 60.0436C36.5424 59.9346 36.0724 59.7848 35.6024 59.644L35.2482 59.5373C34.7885 59.396 34.3313 59.2469 33.8768 59.09L33.6883 59.0219C33.2836 58.8782 32.881 58.7291 32.4804 58.5746L32.1398 58.4383C31.7009 58.2656 31.2656 58.0839 30.8342 57.8934L30.573 57.7798L29.4718 57.2667L29.1539 57.1146C28.8678 56.9783 28.5863 56.8262 28.3025 56.6604L27.7348 56.3653C27.3897 56.1836 27.0536 55.9883 26.713 55.7931L26.3679 55.6001C25.9209 55.3361 25.4781 55.0651 25.0396 54.7872C24.9193 54.71 24.8012 54.6283 24.6809 54.5488L23.7363 53.9198C23.6318 53.8517 23.5092 53.7745 23.432 53.7064L22.5374 53.0593L22.1401 52.7596L21.334 52.1283L20.9752 51.84L19.9716 50.993C19.9351 50.9611 19.8973 50.9308 19.8581 50.9022L18.8023 49.9418L18.5071 49.6557L17.7533 48.9064L17.4581 48.6112C17.1402 48.2865 16.8314 47.9595 16.5499 47.6257C16.534 47.6098 16.5181 47.594 16.5044 47.5758C16.1829 47.2229 15.868 46.8641 15.5599 46.4995L15.3328 46.2044L14.6516 45.3642L14.4246 45.0532L13.6389 44.0087C6.51382 34.3541 3.96621 21.0076 9.62908 10.0633M24.5696 8.64416C19.9194 15.3356 20.1715 24.3113 23.7976 31.3683C24.4052 32.5577 25.0925 33.7047 25.8548 34.8014C26.5518 35.8005 27.3238 36.988 28.248 37.7895C28.584 38.1596 28.9337 38.5161 29.2924 38.8726L29.5649 39.1451C29.9119 39.4835 30.267 39.8136 30.6298 40.135C30.6457 40.1464 30.6571 40.1623 30.6752 40.1736C31.0885 40.5369 31.5063 40.8548 31.9309 41.2136L32.2124 41.4338C32.6384 41.7624 33.073 42.0796 33.5157 42.3852L33.5543 42.4125C33.7496 42.5487 33.9494 42.6736 34.1492 42.8053C34.2446 42.8666 34.3354 42.9324 34.4308 42.9915C34.7482 43.1951 35.07 43.3919 35.3958 43.5818L35.532 43.6613L36.3858 44.1154C36.4857 44.1722 36.6128 44.2198 36.69 44.2743L37.2872 44.5831C37.3167 44.599 37.3485 44.6104 37.378 44.624C37.7876 44.828 38.2025 45.0211 38.6223 45.203L38.8948 45.3165C39.233 45.4601 39.5736 45.5979 39.9166 45.7298L40.3525 45.8887C40.6634 46.0018 40.976 46.11 41.2903 46.2134L41.7149 46.3497C42.1622 46.4859 42.6231 46.6676 43.0704 46.7425C67.0774 50.7206 72.6199 32.2107 72.6199 32.2107C67.6246 39.4085 57.9519 42.8371 47.6252 40.1578C47.1688 40.0377 46.7153 39.9067 46.2651 39.7649C46.1289 39.7241 45.9927 39.6787 45.8564 39.6332L44.9028 39.3063L44.4487 39.1473C44.1059 39.0151 43.7652 38.8773 43.4269 38.7341L43.1499 38.6206C42.7275 38.4369 42.3096 38.2431 41.8965 38.0393L41.2676 37.7214L40.9043 37.5352C40.6371 37.3902 40.3722 37.241 40.1096 37.0879L39.9188 36.9812C39.594 36.7909 39.273 36.5941 38.9561 36.3908C38.8585 36.3295 38.7631 36.2614 38.6655 36.1978L38.041 35.7846C37.6013 35.4798 37.1697 35.1633 36.7468 34.8355L36.4516 34.6084C31.9104 31.039 28.3501 26.1618 26.6472 20.6352C24.8625 14.9019 25.2462 8.46478 28.3388 3.24241M41.3538 2.82689C38.6155 6.8799 38.343 11.8707 40.2458 16.3256C42.2507 21.0552 46.3605 24.7631 51.1583 26.5433L51.7532 26.7703L52.0166 26.8521L52.8726 27.0791C66.1283 29.6404 69.7204 20.2764 70.6809 18.8982C67.5315 23.4325 62.2388 24.5202 55.7449 22.9444C55.2317 22.8195 54.6686 22.6333 54.1736 22.4585C53.5383 22.2333 52.9153 21.9748 52.3072 21.6842C51.153 21.1291 50.057 20.4605 49.0353 19.6883C43.2248 15.2811 39.6146 6.84812 43.4065 0" fill="white"/>
</svg>
