<svg width="80" height="80" viewBox="0 0 80 80" fill="none" xmlns="http://www.w3.org/2000/svg">
<mask id="mask0_1_189" style="mask-type:alpha" maskUnits="userSpaceOnUse" x="0" y="0" width="80" height="80">
<circle cx="40" cy="40" r="40" fill="white"/>
</mask>
<g mask="url(#mask0_1_189)">
<path d="M37.2285 49.7798H20.8122L17.4583 60.1563C17.3701 60.5537 17.017 60.8186 16.6199 60.7745H8.32345C7.83802 60.7745 7.70563 60.5095 7.83802 59.9797L22.0478 19.0479C22.1802 18.6063 22.3126 18.1206 22.4891 17.5907C22.6657 16.6635 22.7539 15.6921 22.7539 14.7206C22.7098 14.4999 22.8863 14.2791 23.107 14.2349H34.5366C34.8896 14.2349 35.0662 14.3674 35.1103 14.5882L51.2177 60.068C51.3501 60.5537 51.2177 60.7745 50.7764 60.7745H41.5533C41.2444 60.8186 40.9354 60.5978 40.8472 60.2888L37.2285 49.7798ZM23.3717 40.8163H34.5807C34.316 39.8891 33.9629 38.7852 33.5657 37.6372C33.1686 36.445 32.7714 35.1645 32.3742 33.8398C31.9329 32.471 31.5358 31.1464 31.0945 29.7776C30.6532 28.4087 30.256 27.1282 29.903 25.8477C29.5499 24.6114 29.241 23.4634 28.9321 22.4036H28.8438C28.4467 24.3023 27.9613 26.201 27.3434 28.0997C26.6815 30.2191 26.0195 32.4269 25.3135 34.6346C24.6956 36.8865 24.0337 38.9618 23.3717 40.8163ZM61.0587 21.9621C59.6024 22.0062 58.1902 21.4322 57.1311 20.4167C56.1161 19.3128 55.5866 17.8557 55.6307 16.3544C55.5866 14.8531 56.1603 13.4401 57.2194 12.4246C58.2785 11.409 59.6906 10.8792 61.1469 10.8792C62.868 10.8792 64.1919 11.409 65.1628 12.4246C66.1336 13.4843 66.6632 14.8973 66.619 16.3544C66.6632 17.8557 66.1336 19.3128 65.0745 20.4167C64.0595 21.4764 62.5591 22.0504 61.0587 21.9621ZM56.1161 60.2888V26.2893C56.1161 25.8477 56.2926 25.6711 56.6898 25.6711H65.4275C65.8247 25.6711 66.0012 25.8919 66.0012 26.2893V60.2888C66.0012 60.7745 65.8247 60.9952 65.4275 60.9952H56.7781C56.3368 60.9952 56.1161 60.7303 56.1161 60.2888V60.2888Z" fill="white"/>
</g>
</svg>
