<svg width="61" height="48" viewBox="0 0 61 48" fill="none" xmlns="http://www.w3.org/2000/svg">
<path d="M0.389648 46.4934V1.06785C0.389648 0.758836 0.514648 0.582254 0.806315 0.582254C1.51465 0.582254 2.18131 0.582255 3.13965 0.538109C4.13965 0.493964 5.18131 0.493964 6.30631 0.449818C7.43131 0.405673 8.63965 0.405673 9.93132 0.361527C11.223 0.317382 12.473 0.317383 13.723 0.317383C17.1397 0.317383 19.973 0.758835 22.3063 1.68589C24.3897 2.43636 26.3063 3.67243 27.8897 5.3058C29.223 6.71845 30.2647 8.44012 30.9313 10.3384C31.5563 12.1925 31.8897 14.0907 31.8897 16.0773C31.8897 19.8737 31.0563 23.0081 29.3897 25.4802C27.723 27.9523 25.3897 29.8064 22.6813 30.8659C19.848 31.9696 16.723 32.3669 13.3063 32.3669C12.3063 32.3669 11.6396 32.3669 11.223 32.3227C10.8063 32.2786 10.223 32.2786 9.43131 32.2786V46.4492C9.47298 46.7582 9.26465 47.0231 8.97298 47.0673C8.93132 47.0673 8.88965 47.0673 8.80631 47.0673H0.889649C0.556315 47.0673 0.389648 46.8907 0.389648 46.4934ZM9.47298 9.1023V23.9351C10.0563 23.9793 10.598 24.0234 11.098 24.0234H13.3063C14.9313 24.0234 16.5563 23.7585 18.098 23.2288C19.4313 22.8315 20.598 21.9927 21.5146 20.8891C22.3896 19.7855 22.8063 18.2845 22.8063 16.3421C22.848 14.9736 22.5147 13.6051 21.848 12.4132C21.1397 11.2654 20.1397 10.3825 18.9313 9.89691C17.3897 9.23473 15.723 8.96986 14.0146 9.01401C12.9313 9.01401 11.973 9.01401 11.1813 9.05815C10.348 9.01401 9.76465 9.05815 9.47298 9.1023Z" fill="white"/>
<path d="M57.8896 21.2423C56.6396 20.536 55.3062 20.0504 53.8896 19.7413C52.3479 19.3882 50.8062 19.1674 49.2229 19.1674C48.3896 19.1233 47.5146 19.2557 46.7229 19.4765C46.1812 19.6089 45.7229 19.9179 45.4312 20.3594C45.2229 20.7125 45.0979 21.154 45.0979 21.5513C45.0979 21.9486 45.2646 22.3459 45.5146 22.6991C45.8896 23.1847 46.3896 23.582 46.9312 23.891C47.8896 24.4207 48.8896 24.9063 49.8896 25.3478C52.1396 26.1424 54.3062 27.246 56.3062 28.5704C57.6812 29.4974 58.8062 30.7335 59.5979 32.2345C60.2646 33.6471 60.5979 35.1922 60.5562 36.7814C60.5979 38.8563 60.0146 40.9311 58.9312 42.6527C57.7646 44.4186 56.1396 45.7871 54.2646 46.5817C52.2229 47.5087 49.7229 47.9943 46.7229 47.9943C44.8062 47.9943 42.9312 47.8177 41.0562 47.4204C39.5979 47.1556 38.1396 46.67 36.8062 46.0078C36.5146 45.8312 36.3062 45.5222 36.3479 45.169V37.4877C36.3479 37.3553 36.3896 37.1787 36.5146 37.0904C36.6396 37.0022 36.7646 37.0463 36.8896 37.1346C38.5146 38.1499 40.2229 38.8563 42.0562 39.2977C43.6396 39.7392 45.3062 39.9599 46.9729 39.9599C48.5562 39.9599 49.6812 39.7392 50.4312 39.3418C51.0979 39.0328 51.5562 38.2824 51.5562 37.4877C51.5562 36.8697 51.2229 36.2958 50.5562 35.7219C49.8896 35.148 48.5146 34.4859 46.4729 33.6471C44.3479 32.8525 42.3896 31.793 40.5562 30.4686C39.2646 29.4974 38.1812 28.2172 37.3896 26.7163C36.7229 25.3036 36.3896 23.7586 36.4312 22.2135C36.4312 20.3152 36.9312 18.5053 37.8479 16.8719C38.8896 15.1061 40.4312 13.6934 42.2229 12.8105C44.1812 11.751 46.6396 11.2654 49.5979 11.2654C51.3062 11.2654 53.0562 11.3979 54.7646 11.6627C56.0146 11.8393 57.2229 12.1925 58.3479 12.6781C58.5146 12.7222 58.6812 12.8988 58.7646 13.0754C58.8062 13.252 58.8479 13.4286 58.8479 13.6051V20.8008C58.8479 20.9774 58.7646 21.154 58.6396 21.2423C58.2646 21.3306 58.0562 21.3306 57.8896 21.2423Z" fill="white"/>
</svg>
