<svg width="94" height="70" viewBox="0 0 94 70" fill="none" xmlns="http://www.w3.org/2000/svg">
<path d="M44.0142 52.9209C43.9705 53.0084 43.9267 53.0784 44.0142 52.9209V52.9209ZM80.3427 40.2344C77.4099 40.2335 74.5161 40.907 71.8851 42.203C71.0247 40.4678 70.1352 38.9512 69.9894 37.8138C69.8144 36.4868 69.6248 35.6994 69.829 34.1245C70.0331 32.5496 70.9518 30.3186 70.9372 30.1582C70.9227 29.9978 70.7331 29.1958 68.852 29.1812C66.9709 29.1666 65.3523 29.5457 65.1642 30.0415C64.8319 30.9476 64.5735 31.879 64.3913 32.8267C64.0559 34.5328 60.6306 40.6282 58.6911 43.8071C58.0495 42.5676 57.51 41.4739 57.3933 40.599C57.2184 39.272 57.0288 38.4846 57.2329 36.9097C57.4371 35.3348 58.3558 33.1038 58.3412 32.9434C58.3266 32.783 58.137 31.9809 56.2574 31.9664C54.3777 31.9518 52.7577 32.3309 52.5681 32.8267C52.3785 33.3225 52.1744 34.4891 51.7953 35.6119C51.4161 36.7347 46.8534 46.8839 45.6591 49.5233C45.0466 50.8648 44.5217 51.9439 44.1425 52.673C44.0842 52.7897 44.0405 52.8626 44.0113 52.9209C44.0551 52.848 44.0842 52.7751 44.0842 52.8042C43.7634 53.4313 43.5738 53.7813 43.5738 53.7813V53.7958C43.3259 54.2625 43.0489 54.6853 42.9176 54.6853C42.8302 54.6853 42.6406 53.4604 42.9614 51.7835C43.6468 48.2546 45.2654 42.7717 45.2508 42.5822C45.2362 42.4801 45.557 41.5322 44.1863 41.0219C42.8593 40.5407 42.3781 41.3427 42.2614 41.3427C42.1448 41.3427 42.0573 41.6343 42.0573 41.6343C42.0573 41.6343 43.5301 35.4515 39.2298 35.4515C36.5467 35.4515 32.8137 38.3971 30.9792 41.0656C29.8273 41.6927 27.3337 43.0488 24.7089 44.4924C23.7028 45.0465 22.6674 45.6152 21.6904 46.1548C21.6175 46.0819 21.5592 46.009 21.4863 45.9361C16.2673 40.3657 6.63144 36.4285 7.03974 28.9479C7.18556 26.221 8.1334 19.0612 25.5693 10.3702C39.8598 3.25412 51.2849 5.20812 53.252 9.5536C56.0809 15.751 47.1435 27.2855 32.3033 28.9479C26.6469 29.5749 23.6736 27.3876 22.9299 26.571C22.157 25.7106 22.0404 25.6669 21.7487 25.8273C21.2675 26.0898 21.5738 26.848 21.7487 27.3001C22.1862 28.4521 24.009 30.4936 27.1135 31.5143C29.8404 32.4038 36.4723 32.8996 44.4911 29.7936C53.4999 26.3231 60.5125 16.6551 58.4564 8.56202C56.3624 0.337687 42.7252 -2.36001 29.8302 2.21878C22.1468 4.94564 13.8379 9.2328 7.86071 14.8178C0.760669 21.4672 -0.375281 27.2563 0.0913479 29.677C1.75225 38.2658 13.59 43.8654 18.3278 48.0067C18.0945 48.138 17.8757 48.2546 17.6716 48.3713C15.2961 49.5524 6.27126 54.277 4.01249 59.2641C1.46061 64.922 4.43537 68.9758 6.38792 69.53C12.4818 71.2215 18.7215 68.1738 22.0739 63.1722C25.4264 58.1705 25.0195 51.6377 23.4738 48.6629C23.4592 48.6192 23.4301 48.59 23.4155 48.5463C24.0279 48.1817 24.655 47.8172 25.282 47.4526C26.4909 46.7381 27.672 46.0819 28.7073 45.5132C28.1241 47.088 27.7012 48.9837 27.4824 51.7252C27.22 54.9332 28.5469 59.0892 30.2676 60.7224C31.0259 61.4369 31.9431 61.4515 32.5118 61.4515C34.5242 61.4515 35.4283 59.7891 36.433 57.8059C37.6724 55.3853 38.7661 52.5709 38.7661 52.5709C38.7661 52.5709 37.3954 60.1828 41.143 60.1828C42.5123 60.1828 43.883 58.4184 44.4969 57.5143V57.5289C44.4969 57.5289 44.5261 57.4705 44.599 57.3539C44.7448 57.1351 44.8177 57.0039 44.8177 57.0039V56.9602C45.3718 56.0123 46.5821 53.8396 48.4034 50.2524C50.7658 45.6152 53.0245 39.8261 53.0245 39.8261C53.2428 41.0987 53.5448 42.3555 53.9286 43.5883C54.3369 44.9736 55.1973 46.4902 55.8826 47.963C55.3285 48.7212 54.9931 49.1587 54.9931 49.1587C54.9942 49.1699 54.9994 49.1803 55.0077 49.1879C54.5702 49.7712 54.0744 50.3982 53.5641 51.0106C51.699 53.2271 49.4811 55.7644 49.1894 56.4935C48.8395 57.3539 48.9269 57.9955 49.5977 58.4913C50.0935 58.8704 50.9684 58.9287 51.8857 58.8558C53.5626 58.7392 54.7438 58.3309 55.3125 58.0684C56.3609 57.6925 57.3518 57.1722 58.2566 56.5227C60.0794 55.1811 61.1876 53.2563 61.0855 50.719C61.0272 49.3191 60.5752 47.9192 60.021 46.6068C60.1814 46.3735 60.3564 46.1256 60.5168 45.8777C63.4026 41.6635 65.6337 37.038 65.6337 37.038C65.852 38.3106 66.154 39.5674 66.5378 40.8002C66.8878 41.9814 67.5717 43.2792 68.1987 44.5478C65.4879 46.7497 63.8109 49.3016 63.2277 50.9786C62.1486 54.0846 62.9943 55.4844 64.5838 55.8053C65.2983 55.9511 66.3191 55.6157 67.0773 55.2949C68.2035 54.9198 69.2653 54.3739 70.2256 53.6763C72.0484 52.3347 73.8114 50.4536 73.6947 47.9017C73.651 46.7497 73.3302 45.5978 72.9073 44.4895C75.1967 43.5271 78.17 43.0021 81.9613 43.4396C90.0807 44.3874 91.6701 49.462 91.3639 51.5764C91.0577 53.6908 89.3516 54.872 88.7829 55.222C88.2142 55.5719 88.0392 55.7032 88.0829 55.9657C88.1558 56.3448 88.4183 56.3302 88.8995 56.2427C89.5703 56.1261 93.1561 54.522 93.3165 50.5994C93.5498 45.6415 88.7829 40.1878 80.3383 40.2315L80.3427 40.2344ZM17.7591 61.3348C15.0774 64.2658 11.3152 65.3741 9.69806 64.4408C7.96279 63.4317 8.64815 59.1183 11.9568 55.9948C13.9692 54.0991 16.5633 52.3493 18.284 51.2702C18.6777 51.0369 19.2464 50.6869 19.9464 50.264C20.063 50.1911 20.1214 50.162 20.1214 50.162C20.2526 50.0745 20.3984 50.0016 20.5443 49.9141C21.7531 54.347 20.588 58.2551 17.7591 61.3319V61.3348ZM37.3516 48.0067C36.4184 50.2961 34.4513 56.129 33.2555 55.8228C32.2348 55.5603 31.6077 51.1127 33.0514 46.7381C33.7805 44.5362 35.3262 41.9114 36.2449 40.8906C37.7162 39.2429 39.3348 38.7179 39.7139 39.3741C40.2243 40.2344 37.9349 46.5777 37.3516 48.0067ZM53.5378 55.7353C53.1441 55.9394 52.7795 56.0706 52.6046 55.9686C52.4733 55.8957 52.765 55.6186 52.765 55.6186C52.765 55.6186 54.7919 53.4459 55.5939 52.4543C56.0605 51.871 56.6001 51.1856 57.1819 50.4274C57.1819 50.5003 57.1965 50.5732 57.1965 50.6607C57.1775 53.2709 54.6709 55.0353 53.5334 55.7353H53.5378ZM66.0172 52.8917C65.7256 52.6876 65.7693 52.0022 66.7463 49.8732C67.1255 49.0421 67.9989 47.6422 69.5169 46.3006C69.6888 46.8084 69.7822 47.3395 69.794 47.8755C69.7794 51.1565 67.4317 52.3814 66.0187 52.8917H66.0172Z" fill="white"/>
</svg>
