<svg width="80" height="80" viewBox="0 0 80 80" fill="none" xmlns="http://www.w3.org/2000/svg">
<mask id="mask0_1_171" style="mask-type:alpha" maskUnits="userSpaceOnUse" x="0" y="0" width="80" height="80">
<circle cx="40" cy="40" r="40" fill="white"/>
</mask>
<g mask="url(#mask0_1_171)">
<path d="M41.743 22.2662L30.3936 40.9926L42.4996 60.854C42.5752 61.0053 42.6131 61.1567 42.5752 61.308C42.5374 61.4593 42.3861 61.3458 42.1591 61.3836H33.4958C32.8905 61.3836 32.4743 61.3458 32.2095 60.9675C31.415 59.3786 30.5828 57.8275 29.7883 56.2386C28.9939 54.6875 28.1237 53.0986 27.2158 51.4719C26.3078 49.8451 25.3999 48.2184 24.4919 46.5538H24.4163C23.6218 48.1806 22.7517 49.8073 21.8816 51.4341C21.0115 53.0608 20.1414 54.6875 19.3091 56.2764C18.4389 57.8653 17.5688 59.4921 16.6987 61.0432C16.5474 61.4215 16.2447 61.4593 15.8286 61.4593H7.50573C7.35441 61.4593 7.24092 61.535 7.24092 61.3458C7.20308 61.1945 7.24092 61.0432 7.31658 60.9297L19.0821 41.6358L7.61923 22.2284C7.50573 22.077 7.4679 21.9257 7.54356 21.8501C7.61923 21.7366 7.77055 21.6987 7.92188 21.6987H16.5096C16.6987 21.6987 16.8879 21.7366 17.0392 21.7744C17.1905 21.8501 17.304 21.9635 17.4175 22.1149C18.1363 23.7416 18.9686 25.3684 19.8387 26.9951C20.7467 28.6218 21.6168 30.2107 22.5625 31.7997C23.4705 33.3886 24.3028 34.9775 25.0972 36.6042H25.1729C25.9674 34.9396 26.7996 33.3129 27.6319 31.724C28.4642 30.1351 29.3343 28.5462 30.2044 26.9573C31.0746 25.3684 31.9069 23.7416 32.7391 22.1905C32.777 22.0392 32.8526 21.8879 32.9661 21.8122C33.1175 21.7366 33.2688 21.6987 33.4579 21.7366H41.4403C41.6295 21.6987 41.8186 21.8122 41.8565 22.0014C41.8943 22.0392 41.8186 22.1905 41.743 22.2662Z" fill="white"/>
<path d="M59.2208 62.1781C56.4213 62.2159 53.6218 61.6484 51.0871 60.4757C48.7038 59.3786 46.7365 57.5627 45.3746 55.3306C43.9749 53.0229 43.2939 50.1477 43.2939 46.7051C43.2561 43.9056 43.9749 41.1439 45.3746 38.7227C46.8122 36.2637 48.8929 34.2208 51.3898 32.8589C54.038 31.3835 57.2158 30.6647 60.9611 30.6647C61.1502 30.6647 61.415 30.6647 61.7555 30.7025C62.096 30.7403 62.4743 30.7403 62.9283 30.7782V18.8235C62.9283 18.5587 63.0418 18.4074 63.3066 18.4074H70.9863C71.1755 18.3695 71.3268 18.5209 71.3646 18.6722C71.3646 18.71 71.3646 18.7479 71.3646 18.7479V54.7631C71.3646 55.4441 71.4025 56.2007 71.4403 57.033C71.516 57.8275 71.5538 58.5841 71.5916 59.2272C71.5916 59.492 71.4781 59.719 71.2133 59.8325C69.2461 60.6648 67.1654 61.2701 65.0468 61.6484C63.1174 61.9889 61.1881 62.1781 59.2208 62.1781ZM62.9283 54.6118V37.9661C62.5878 37.8904 62.2473 37.8148 61.9068 37.7769C61.4907 37.7391 61.0746 37.7013 60.6584 37.7013C59.183 37.7013 57.7076 38.0039 56.3835 38.6849C55.0972 39.328 54.0001 40.2738 53.1678 41.4844C52.3356 42.695 51.9194 44.3217 51.9194 46.289C51.8816 47.6131 52.1086 48.9371 52.5625 50.1856C52.9409 51.207 53.5083 52.115 54.2649 52.8716C54.9837 53.5525 55.8539 54.0822 56.8375 54.3848C57.8589 54.7253 58.9182 54.8766 59.9775 54.8766C60.5449 54.8766 61.0746 54.8388 61.5664 54.801C62.0582 54.8388 62.4743 54.7631 62.9283 54.6118Z" fill="white"/>
</g>
</svg>
